<mxfile host="Electron" agent="Mozilla/5.0 (Windows NT 10.0; Win64; x64) AppleWebKit/537.36 (KHTML, like Gecko) draw.io/24.7.5 Chrome/126.0.6478.183 Electron/31.3.0 Safari/537.36" version="24.7.5" pages="5">
  <diagram name="1" id="-H_mtQnk-PTXWXPvYvuk">
    <mxGraphModel dx="644" dy="902" grid="1" gridSize="10" guides="1" tooltips="1" connect="1" arrows="1" fold="1" page="1" pageScale="1" pageWidth="1169" pageHeight="827" math="0" shadow="0">
      <root>
        <mxCell id="0" />
        <mxCell id="1" parent="0" />
        <mxCell id="oEJGd8LFPoCRk_hWllGV-12" value="pymongo-api" style="rounded=1;whiteSpace=wrap;html=1;" parent="1" vertex="1">
          <mxGeometry x="427.5" y="250" width="120" height="60" as="geometry" />
        </mxCell>
        <mxCell id="oEJGd8LFPoCRk_hWllGV-15" value="" style="endArrow=classic;html=1;rounded=0;exitX=0.5;exitY=1;exitDx=0;exitDy=0;entryX=0.5;entryY=0;entryDx=0;entryDy=0;" parent="1" target="oEJGd8LFPoCRk_hWllGV-16" edge="1">
          <mxGeometry width="50" height="50" relative="1" as="geometry">
            <mxPoint x="495" y="310" as="sourcePoint" />
            <mxPoint x="450" y="360" as="targetPoint" />
          </mxGeometry>
        </mxCell>
        <mxCell id="oEJGd8LFPoCRk_hWllGV-16" value="mongos_router" style="rounded=1;whiteSpace=wrap;html=1;" parent="1" vertex="1">
          <mxGeometry x="442.5" y="360" width="105" height="40" as="geometry" />
        </mxCell>
        <mxCell id="oEJGd8LFPoCRk_hWllGV-17" value="" style="endArrow=classic;html=1;rounded=0;exitX=0.159;exitY=1.02;exitDx=0;exitDy=0;exitPerimeter=0;" parent="1" source="oEJGd8LFPoCRk_hWllGV-16" edge="1">
          <mxGeometry width="50" height="50" relative="1" as="geometry">
            <mxPoint x="460" y="430" as="sourcePoint" />
            <mxPoint x="450" y="440" as="targetPoint" />
          </mxGeometry>
        </mxCell>
        <mxCell id="oEJGd8LFPoCRk_hWllGV-18" value="" style="endArrow=classic;html=1;rounded=0;exitX=0.837;exitY=0.98;exitDx=0;exitDy=0;exitPerimeter=0;" parent="1" source="oEJGd8LFPoCRk_hWllGV-16" edge="1">
          <mxGeometry width="50" height="50" relative="1" as="geometry">
            <mxPoint x="590" y="470" as="sourcePoint" />
            <mxPoint x="540" y="440" as="targetPoint" />
          </mxGeometry>
        </mxCell>
        <mxCell id="oEJGd8LFPoCRk_hWllGV-19" value="shard1" style="rounded=1;whiteSpace=wrap;html=1;" parent="1" vertex="1">
          <mxGeometry x="380" y="440" width="90" height="40" as="geometry" />
        </mxCell>
        <mxCell id="oEJGd8LFPoCRk_hWllGV-20" value="shard2" style="rounded=1;whiteSpace=wrap;html=1;" parent="1" vertex="1">
          <mxGeometry x="520" y="440" width="90" height="40" as="geometry" />
        </mxCell>
        <mxCell id="oEJGd8LFPoCRk_hWllGV-21" value="configSrv" style="rounded=0;whiteSpace=wrap;html=1;" parent="1" vertex="1">
          <mxGeometry x="600" y="250" width="120" height="60" as="geometry" />
        </mxCell>
        <mxCell id="oEJGd8LFPoCRk_hWllGV-22" value="" style="endArrow=none;html=1;rounded=0;entryX=0.073;entryY=1;entryDx=0;entryDy=0;entryPerimeter=0;" parent="1" target="oEJGd8LFPoCRk_hWllGV-21" edge="1">
          <mxGeometry width="50" height="50" relative="1" as="geometry">
            <mxPoint x="550" y="380" as="sourcePoint" />
            <mxPoint x="610" y="330" as="targetPoint" />
            <Array as="points">
              <mxPoint x="610" y="380" />
            </Array>
          </mxGeometry>
        </mxCell>
        <mxCell id="Y1At9HWybkhxk0uo4Ypn-1" value="" style="endArrow=none;html=1;rounded=0;" parent="1" edge="1">
          <mxGeometry width="50" height="50" relative="1" as="geometry">
            <mxPoint x="470" y="459.5" as="sourcePoint" />
            <mxPoint x="520" y="460" as="targetPoint" />
          </mxGeometry>
        </mxCell>
        <mxCell id="Y1At9HWybkhxk0uo4Ypn-2" value="" style="endArrow=none;html=1;rounded=0;" parent="1" edge="1">
          <mxGeometry width="50" height="50" relative="1" as="geometry">
            <mxPoint x="610" y="460" as="sourcePoint" />
            <mxPoint x="680" y="460" as="targetPoint" />
          </mxGeometry>
        </mxCell>
        <mxCell id="Y1At9HWybkhxk0uo4Ypn-3" value="" style="endArrow=none;html=1;rounded=0;entryX=0.677;entryY=1.02;entryDx=0;entryDy=0;entryPerimeter=0;" parent="1" target="oEJGd8LFPoCRk_hWllGV-21" edge="1">
          <mxGeometry width="50" height="50" relative="1" as="geometry">
            <mxPoint x="680" y="460" as="sourcePoint" />
            <mxPoint x="730" y="410" as="targetPoint" />
          </mxGeometry>
        </mxCell>
      </root>
    </mxGraphModel>
  </diagram>
  <diagram id="HxwfE19hFqBON5K2Dm-H" name="2">
    <mxGraphModel dx="1644" dy="902" grid="1" gridSize="10" guides="1" tooltips="1" connect="1" arrows="1" fold="1" page="1" pageScale="1" pageWidth="827" pageHeight="1169" math="0" shadow="0">
      <root>
        <mxCell id="0" />
        <mxCell id="1" parent="0" />
        <mxCell id="rTBNETFXugch8xiqPbf_-4" value="" style="rounded=1;whiteSpace=wrap;html=1;" parent="1" vertex="1">
          <mxGeometry x="300" y="440" width="170" height="210" as="geometry" />
        </mxCell>
        <mxCell id="ZkibSyexMXeEmQoRUTox-1" value="pymongo-api" style="rounded=1;whiteSpace=wrap;html=1;" parent="1" vertex="1">
          <mxGeometry x="427.5" y="250" width="120" height="60" as="geometry" />
        </mxCell>
        <mxCell id="ZkibSyexMXeEmQoRUTox-4" value="" style="endArrow=classic;html=1;rounded=0;exitX=0.5;exitY=1;exitDx=0;exitDy=0;entryX=0.5;entryY=0;entryDx=0;entryDy=0;" parent="1" target="ZkibSyexMXeEmQoRUTox-5" edge="1">
          <mxGeometry width="50" height="50" relative="1" as="geometry">
            <mxPoint x="495" y="310" as="sourcePoint" />
            <mxPoint x="450" y="360" as="targetPoint" />
          </mxGeometry>
        </mxCell>
        <mxCell id="ZkibSyexMXeEmQoRUTox-5" value="mongos_router" style="rounded=1;whiteSpace=wrap;html=1;" parent="1" vertex="1">
          <mxGeometry x="442.5" y="360" width="105" height="40" as="geometry" />
        </mxCell>
        <mxCell id="ZkibSyexMXeEmQoRUTox-6" value="" style="endArrow=classic;html=1;rounded=0;exitX=0.159;exitY=1.02;exitDx=0;exitDy=0;exitPerimeter=0;" parent="1" source="ZkibSyexMXeEmQoRUTox-5" edge="1">
          <mxGeometry width="50" height="50" relative="1" as="geometry">
            <mxPoint x="460" y="430" as="sourcePoint" />
            <mxPoint x="450" y="440" as="targetPoint" />
          </mxGeometry>
        </mxCell>
        <mxCell id="ZkibSyexMXeEmQoRUTox-7" value="" style="endArrow=classic;html=1;rounded=0;exitX=0.837;exitY=0.98;exitDx=0;exitDy=0;exitPerimeter=0;" parent="1" source="ZkibSyexMXeEmQoRUTox-5" edge="1">
          <mxGeometry width="50" height="50" relative="1" as="geometry">
            <mxPoint x="590" y="470" as="sourcePoint" />
            <mxPoint x="540" y="440" as="targetPoint" />
          </mxGeometry>
        </mxCell>
        <mxCell id="ZkibSyexMXeEmQoRUTox-10" value="configSrv" style="rounded=0;whiteSpace=wrap;html=1;" parent="1" vertex="1">
          <mxGeometry x="600" y="250" width="120" height="60" as="geometry" />
        </mxCell>
        <mxCell id="ZkibSyexMXeEmQoRUTox-11" value="" style="endArrow=none;html=1;rounded=0;" parent="1" edge="1">
          <mxGeometry width="50" height="50" relative="1" as="geometry">
            <mxPoint x="550" y="380" as="sourcePoint" />
            <mxPoint x="609" y="310" as="targetPoint" />
            <Array as="points">
              <mxPoint x="610" y="380" />
            </Array>
          </mxGeometry>
        </mxCell>
        <mxCell id="ZkibSyexMXeEmQoRUTox-12" value="" style="endArrow=none;html=1;rounded=0;" parent="1" edge="1">
          <mxGeometry width="50" height="50" relative="1" as="geometry">
            <mxPoint x="470" y="459.5" as="sourcePoint" />
            <mxPoint x="500" y="460" as="targetPoint" />
          </mxGeometry>
        </mxCell>
        <mxCell id="ZkibSyexMXeEmQoRUTox-13" value="" style="endArrow=none;html=1;rounded=0;" parent="1" edge="1">
          <mxGeometry width="50" height="50" relative="1" as="geometry">
            <mxPoint x="710" y="460" as="sourcePoint" />
            <mxPoint x="670" y="460" as="targetPoint" />
          </mxGeometry>
        </mxCell>
        <mxCell id="ZkibSyexMXeEmQoRUTox-14" value="" style="endArrow=none;html=1;rounded=0;entryX=0.677;entryY=1.02;entryDx=0;entryDy=0;entryPerimeter=0;" parent="1" edge="1">
          <mxGeometry width="50" height="50" relative="1" as="geometry">
            <mxPoint x="710" y="460" as="sourcePoint" />
            <mxPoint x="711.24" y="311.20000000000005" as="targetPoint" />
          </mxGeometry>
        </mxCell>
        <mxCell id="rTBNETFXugch8xiqPbf_-3" value="" style="shape=cylinder3;whiteSpace=wrap;html=1;boundedLbl=1;backgroundOutline=1;size=15;" parent="1" vertex="1">
          <mxGeometry x="365" y="460" width="50" height="70" as="geometry" />
        </mxCell>
        <mxCell id="rTBNETFXugch8xiqPbf_-6" value="" style="shape=cylinder3;whiteSpace=wrap;html=1;boundedLbl=1;backgroundOutline=1;size=15;" parent="1" vertex="1">
          <mxGeometry x="320" y="550" width="50" height="70" as="geometry" />
        </mxCell>
        <mxCell id="rTBNETFXugch8xiqPbf_-7" value="" style="shape=cylinder3;whiteSpace=wrap;html=1;boundedLbl=1;backgroundOutline=1;size=15;" parent="1" vertex="1">
          <mxGeometry x="410" y="550" width="50" height="70" as="geometry" />
        </mxCell>
        <mxCell id="rTBNETFXugch8xiqPbf_-8" value="" style="rounded=1;whiteSpace=wrap;html=1;" parent="1" vertex="1">
          <mxGeometry x="500" y="440" width="170" height="210" as="geometry" />
        </mxCell>
        <mxCell id="rTBNETFXugch8xiqPbf_-9" value="" style="shape=cylinder3;whiteSpace=wrap;html=1;boundedLbl=1;backgroundOutline=1;size=15;" parent="1" vertex="1">
          <mxGeometry x="560" y="460" width="50" height="70" as="geometry" />
        </mxCell>
        <mxCell id="rTBNETFXugch8xiqPbf_-10" value="" style="shape=cylinder3;whiteSpace=wrap;html=1;boundedLbl=1;backgroundOutline=1;size=15;" parent="1" vertex="1">
          <mxGeometry x="600" y="550" width="50" height="70" as="geometry" />
        </mxCell>
        <mxCell id="rTBNETFXugch8xiqPbf_-11" value="" style="shape=cylinder3;whiteSpace=wrap;html=1;boundedLbl=1;backgroundOutline=1;size=15;" parent="1" vertex="1">
          <mxGeometry x="520" y="550" width="50" height="70" as="geometry" />
        </mxCell>
        <mxCell id="rTBNETFXugch8xiqPbf_-12" value="shard1" style="text;strokeColor=none;align=center;fillColor=none;html=1;verticalAlign=middle;whiteSpace=wrap;rounded=0;" parent="1" vertex="1">
          <mxGeometry x="305" y="410" width="60" height="30" as="geometry" />
        </mxCell>
        <mxCell id="rTBNETFXugch8xiqPbf_-13" value="shard2" style="text;whiteSpace=wrap;" parent="1" vertex="1">
          <mxGeometry x="560" y="410" width="80" height="40" as="geometry" />
        </mxCell>
        <mxCell id="rTBNETFXugch8xiqPbf_-14" value="shard1-1" style="text;whiteSpace=wrap;" parent="1" vertex="1">
          <mxGeometry x="365" y="490" width="80" height="40" as="geometry" />
        </mxCell>
        <mxCell id="rTBNETFXugch8xiqPbf_-15" value="shard1-2" style="text;whiteSpace=wrap;" parent="1" vertex="1">
          <mxGeometry x="320" y="580" width="80" height="40" as="geometry" />
        </mxCell>
        <mxCell id="rTBNETFXugch8xiqPbf_-16" value="shard1-3" style="text;whiteSpace=wrap;" parent="1" vertex="1">
          <mxGeometry x="410" y="580" width="80" height="40" as="geometry" />
        </mxCell>
        <mxCell id="rTBNETFXugch8xiqPbf_-17" value="shard2-1" style="text;whiteSpace=wrap;" parent="1" vertex="1">
          <mxGeometry x="560" y="490" width="80" height="40" as="geometry" />
        </mxCell>
        <mxCell id="rTBNETFXugch8xiqPbf_-18" value="shard2-3" style="text;whiteSpace=wrap;" parent="1" vertex="1">
          <mxGeometry x="600" y="580" width="80" height="40" as="geometry" />
        </mxCell>
        <mxCell id="rTBNETFXugch8xiqPbf_-19" value="shard2-2" style="text;whiteSpace=wrap;" parent="1" vertex="1">
          <mxGeometry x="520" y="580" width="80" height="40" as="geometry" />
        </mxCell>
      </root>
    </mxGraphModel>
  </diagram>
  <diagram id="ZEwZXcpdLwxaiw8sIov_" name="3">
    <mxGraphModel dx="1644" dy="902" grid="1" gridSize="10" guides="1" tooltips="1" connect="1" arrows="1" fold="1" page="1" pageScale="1" pageWidth="827" pageHeight="1169" math="0" shadow="0">
      <root>
        <mxCell id="0" />
        <mxCell id="1" parent="0" />
        <mxCell id="ObplLfveBAmdapv_q6aD-1" value="" style="rounded=1;whiteSpace=wrap;html=1;" parent="1" vertex="1">
          <mxGeometry x="300" y="440" width="170" height="150" as="geometry" />
        </mxCell>
        <mxCell id="ObplLfveBAmdapv_q6aD-2" value="pymongo-api" style="rounded=1;whiteSpace=wrap;html=1;" parent="1" vertex="1">
          <mxGeometry x="427.5" y="250" width="120" height="60" as="geometry" />
        </mxCell>
        <mxCell id="ObplLfveBAmdapv_q6aD-5" value="" style="endArrow=classic;html=1;rounded=0;exitX=0.5;exitY=1;exitDx=0;exitDy=0;entryX=0.5;entryY=0;entryDx=0;entryDy=0;" parent="1" target="ObplLfveBAmdapv_q6aD-6" edge="1">
          <mxGeometry width="50" height="50" relative="1" as="geometry">
            <mxPoint x="495" y="310" as="sourcePoint" />
            <mxPoint x="450" y="360" as="targetPoint" />
          </mxGeometry>
        </mxCell>
        <mxCell id="ObplLfveBAmdapv_q6aD-6" value="mongos_router" style="rounded=1;whiteSpace=wrap;html=1;" parent="1" vertex="1">
          <mxGeometry x="442.5" y="360" width="105" height="40" as="geometry" />
        </mxCell>
        <mxCell id="ObplLfveBAmdapv_q6aD-7" value="" style="endArrow=classic;html=1;rounded=0;exitX=0.159;exitY=1.02;exitDx=0;exitDy=0;exitPerimeter=0;" parent="1" source="ObplLfveBAmdapv_q6aD-6" edge="1">
          <mxGeometry width="50" height="50" relative="1" as="geometry">
            <mxPoint x="460" y="430" as="sourcePoint" />
            <mxPoint x="450" y="440" as="targetPoint" />
          </mxGeometry>
        </mxCell>
        <mxCell id="ObplLfveBAmdapv_q6aD-8" value="" style="endArrow=classic;html=1;rounded=0;exitX=0.837;exitY=0.98;exitDx=0;exitDy=0;exitPerimeter=0;" parent="1" source="ObplLfveBAmdapv_q6aD-6" edge="1">
          <mxGeometry width="50" height="50" relative="1" as="geometry">
            <mxPoint x="590" y="470" as="sourcePoint" />
            <mxPoint x="540" y="440" as="targetPoint" />
          </mxGeometry>
        </mxCell>
        <mxCell id="ObplLfveBAmdapv_q6aD-9" value="configSrv" style="rounded=0;whiteSpace=wrap;html=1;" parent="1" vertex="1">
          <mxGeometry x="600" y="250" width="120" height="60" as="geometry" />
        </mxCell>
        <mxCell id="ObplLfveBAmdapv_q6aD-10" value="" style="endArrow=none;html=1;rounded=0;" parent="1" edge="1">
          <mxGeometry width="50" height="50" relative="1" as="geometry">
            <mxPoint x="550" y="380" as="sourcePoint" />
            <mxPoint x="609" y="310" as="targetPoint" />
            <Array as="points">
              <mxPoint x="610" y="380" />
            </Array>
          </mxGeometry>
        </mxCell>
        <mxCell id="ObplLfveBAmdapv_q6aD-11" value="" style="endArrow=none;html=1;rounded=0;" parent="1" edge="1">
          <mxGeometry width="50" height="50" relative="1" as="geometry">
            <mxPoint x="470" y="459.5" as="sourcePoint" />
            <mxPoint x="500" y="460" as="targetPoint" />
          </mxGeometry>
        </mxCell>
        <mxCell id="ObplLfveBAmdapv_q6aD-12" value="" style="endArrow=none;html=1;rounded=0;" parent="1" edge="1">
          <mxGeometry width="50" height="50" relative="1" as="geometry">
            <mxPoint x="710" y="460" as="sourcePoint" />
            <mxPoint x="670" y="460" as="targetPoint" />
          </mxGeometry>
        </mxCell>
        <mxCell id="ObplLfveBAmdapv_q6aD-13" value="" style="endArrow=none;html=1;rounded=0;entryX=0.677;entryY=1.02;entryDx=0;entryDy=0;entryPerimeter=0;" parent="1" edge="1">
          <mxGeometry width="50" height="50" relative="1" as="geometry">
            <mxPoint x="710" y="460" as="sourcePoint" />
            <mxPoint x="711.24" y="311.20000000000005" as="targetPoint" />
          </mxGeometry>
        </mxCell>
        <mxCell id="ObplLfveBAmdapv_q6aD-14" value="" style="shape=cylinder3;whiteSpace=wrap;html=1;boundedLbl=1;backgroundOutline=1;size=15;" parent="1" vertex="1">
          <mxGeometry x="310" y="460" width="50" height="70" as="geometry" />
        </mxCell>
        <mxCell id="ObplLfveBAmdapv_q6aD-15" value="" style="shape=cylinder3;whiteSpace=wrap;html=1;boundedLbl=1;backgroundOutline=1;size=15;" parent="1" vertex="1">
          <mxGeometry x="410" y="460" width="50" height="70" as="geometry" />
        </mxCell>
        <mxCell id="ObplLfveBAmdapv_q6aD-16" value="" style="shape=cylinder3;whiteSpace=wrap;html=1;boundedLbl=1;backgroundOutline=1;size=15;" parent="1" vertex="1">
          <mxGeometry x="360" y="515" width="50" height="70" as="geometry" />
        </mxCell>
        <mxCell id="ObplLfveBAmdapv_q6aD-17" value="" style="rounded=1;whiteSpace=wrap;html=1;" parent="1" vertex="1">
          <mxGeometry x="500" y="440" width="170" height="150" as="geometry" />
        </mxCell>
        <mxCell id="ObplLfveBAmdapv_q6aD-18" value="" style="shape=cylinder3;whiteSpace=wrap;html=1;boundedLbl=1;backgroundOutline=1;size=15;" parent="1" vertex="1">
          <mxGeometry x="510" y="460" width="50" height="70" as="geometry" />
        </mxCell>
        <mxCell id="ObplLfveBAmdapv_q6aD-19" value="" style="shape=cylinder3;whiteSpace=wrap;html=1;boundedLbl=1;backgroundOutline=1;size=15;" parent="1" vertex="1">
          <mxGeometry x="610" y="460" width="50" height="70" as="geometry" />
        </mxCell>
        <mxCell id="ObplLfveBAmdapv_q6aD-20" value="" style="shape=cylinder3;whiteSpace=wrap;html=1;boundedLbl=1;backgroundOutline=1;size=15;" parent="1" vertex="1">
          <mxGeometry x="560" y="515" width="50" height="70" as="geometry" />
        </mxCell>
        <mxCell id="ObplLfveBAmdapv_q6aD-21" value="shard1" style="text;strokeColor=none;align=center;fillColor=none;html=1;verticalAlign=middle;whiteSpace=wrap;rounded=0;" parent="1" vertex="1">
          <mxGeometry x="305" y="410" width="60" height="30" as="geometry" />
        </mxCell>
        <mxCell id="ObplLfveBAmdapv_q6aD-22" value="shard2" style="text;whiteSpace=wrap;" parent="1" vertex="1">
          <mxGeometry x="560" y="410" width="80" height="40" as="geometry" />
        </mxCell>
        <mxCell id="ObplLfveBAmdapv_q6aD-23" value="shard1-1" style="text;whiteSpace=wrap;" parent="1" vertex="1">
          <mxGeometry x="310" y="490" width="80" height="40" as="geometry" />
        </mxCell>
        <mxCell id="ObplLfveBAmdapv_q6aD-24" value="shard1-2" style="text;whiteSpace=wrap;" parent="1" vertex="1">
          <mxGeometry x="410" y="490" width="80" height="40" as="geometry" />
        </mxCell>
        <mxCell id="ObplLfveBAmdapv_q6aD-25" value="shard1-3" style="text;whiteSpace=wrap;" parent="1" vertex="1">
          <mxGeometry x="360" y="545" width="80" height="40" as="geometry" />
        </mxCell>
        <mxCell id="ObplLfveBAmdapv_q6aD-26" value="shard2-1" style="text;whiteSpace=wrap;" parent="1" vertex="1">
          <mxGeometry x="510" y="490" width="80" height="40" as="geometry" />
        </mxCell>
        <mxCell id="ObplLfveBAmdapv_q6aD-27" value="shard2-2" style="text;whiteSpace=wrap;" parent="1" vertex="1">
          <mxGeometry x="610" y="490" width="80" height="40" as="geometry" />
        </mxCell>
        <mxCell id="ObplLfveBAmdapv_q6aD-28" value="shard2-3" style="text;whiteSpace=wrap;" parent="1" vertex="1">
          <mxGeometry x="560" y="545" width="80" height="40" as="geometry" />
        </mxCell>
        <mxCell id="0TCxv94JVyhEZ76uuOPf-1" value="redis" style="rhombus;whiteSpace=wrap;html=1;" parent="1" vertex="1">
          <mxGeometry x="320" y="120" width="80" height="80" as="geometry" />
        </mxCell>
        <mxCell id="k9Gpd14z2fYCT7tFkKH_-1" value="" style="endArrow=none;dashed=1;html=1;rounded=0;" parent="1" source="0TCxv94JVyhEZ76uuOPf-1" edge="1">
          <mxGeometry width="50" height="50" relative="1" as="geometry">
            <mxPoint x="375" y="305" as="sourcePoint" />
            <mxPoint x="425" y="255" as="targetPoint" />
          </mxGeometry>
        </mxCell>
      </root>
    </mxGraphModel>
  </diagram>
  <diagram id="zQeGdFy0gUxaxZCLfCJS" name="5">
    <mxGraphModel dx="1644" dy="902" grid="1" gridSize="10" guides="1" tooltips="1" connect="1" arrows="1" fold="1" page="1" pageScale="1" pageWidth="827" pageHeight="1169" math="0" shadow="0">
      <root>
        <mxCell id="0" />
        <mxCell id="1" parent="0" />
        <mxCell id="2o9U43HlcudiyYIdb7B9-1" value="" style="rounded=1;whiteSpace=wrap;html=1;" parent="1" vertex="1">
          <mxGeometry x="170" y="420" width="200" height="190" as="geometry" />
        </mxCell>
        <mxCell id="2o9U43HlcudiyYIdb7B9-2" value="pymongo-api" style="rounded=1;whiteSpace=wrap;html=1;" parent="1" vertex="1">
          <mxGeometry x="220" y="200" width="120" height="60" as="geometry" />
        </mxCell>
        <mxCell id="2o9U43HlcudiyYIdb7B9-6" value="mongos_router" style="rounded=1;whiteSpace=wrap;html=1;" parent="1" vertex="1">
          <mxGeometry x="232.5" y="300" width="105" height="40" as="geometry" />
        </mxCell>
        <mxCell id="2o9U43HlcudiyYIdb7B9-9" value="configSrv" style="rounded=0;whiteSpace=wrap;html=1;" parent="1" vertex="1">
          <mxGeometry x="670" y="90" width="120" height="60" as="geometry" />
        </mxCell>
        <mxCell id="2o9U43HlcudiyYIdb7B9-11" value="" style="endArrow=none;html=1;rounded=0;" parent="1" edge="1">
          <mxGeometry width="50" height="50" relative="1" as="geometry">
            <mxPoint x="370" y="439.5" as="sourcePoint" />
            <mxPoint x="400" y="440" as="targetPoint" />
          </mxGeometry>
        </mxCell>
        <mxCell id="2o9U43HlcudiyYIdb7B9-12" value="" style="endArrow=none;html=1;rounded=0;" parent="1" edge="1">
          <mxGeometry width="50" height="50" relative="1" as="geometry">
            <mxPoint x="610" y="440" as="sourcePoint" />
            <mxPoint x="570" y="440" as="targetPoint" />
          </mxGeometry>
        </mxCell>
        <mxCell id="2o9U43HlcudiyYIdb7B9-14" value="" style="shape=cylinder3;whiteSpace=wrap;html=1;boundedLbl=1;backgroundOutline=1;size=15;" parent="1" vertex="1">
          <mxGeometry x="185" y="440" width="50" height="70" as="geometry" />
        </mxCell>
        <mxCell id="2o9U43HlcudiyYIdb7B9-15" value="" style="shape=cylinder3;whiteSpace=wrap;html=1;boundedLbl=1;backgroundOutline=1;size=15;" parent="1" vertex="1">
          <mxGeometry x="310" y="440" width="50" height="70" as="geometry" />
        </mxCell>
        <mxCell id="2o9U43HlcudiyYIdb7B9-16" value="" style="shape=cylinder3;whiteSpace=wrap;html=1;boundedLbl=1;backgroundOutline=1;size=15;" parent="1" vertex="1">
          <mxGeometry x="245" y="525" width="50" height="70" as="geometry" />
        </mxCell>
        <mxCell id="2o9U43HlcudiyYIdb7B9-17" value="" style="rounded=1;whiteSpace=wrap;html=1;" parent="1" vertex="1">
          <mxGeometry x="400" y="420" width="210" height="190" as="geometry" />
        </mxCell>
        <mxCell id="2o9U43HlcudiyYIdb7B9-18" value="" style="shape=cylinder3;whiteSpace=wrap;html=1;boundedLbl=1;backgroundOutline=1;size=15;" parent="1" vertex="1">
          <mxGeometry x="410" y="440" width="50" height="70" as="geometry" />
        </mxCell>
        <mxCell id="2o9U43HlcudiyYIdb7B9-19" value="" style="shape=cylinder3;whiteSpace=wrap;html=1;boundedLbl=1;backgroundOutline=1;size=15;" parent="1" vertex="1">
          <mxGeometry x="550" y="440" width="50" height="70" as="geometry" />
        </mxCell>
        <mxCell id="2o9U43HlcudiyYIdb7B9-20" value="" style="shape=cylinder3;whiteSpace=wrap;html=1;boundedLbl=1;backgroundOutline=1;size=15;" parent="1" vertex="1">
          <mxGeometry x="477.5" y="525" width="50" height="70" as="geometry" />
        </mxCell>
        <mxCell id="2o9U43HlcudiyYIdb7B9-21" value="shard1" style="text;strokeColor=none;align=center;fillColor=none;html=1;verticalAlign=middle;whiteSpace=wrap;rounded=0;" parent="1" vertex="1">
          <mxGeometry x="200" y="400" width="60" height="30" as="geometry" />
        </mxCell>
        <mxCell id="2o9U43HlcudiyYIdb7B9-22" value="shard2" style="text;whiteSpace=wrap;" parent="1" vertex="1">
          <mxGeometry x="414" y="400" width="80" height="40" as="geometry" />
        </mxCell>
        <mxCell id="2o9U43HlcudiyYIdb7B9-23" value="shard1-1" style="text;whiteSpace=wrap;" parent="1" vertex="1">
          <mxGeometry x="185" y="470" width="80" height="40" as="geometry" />
        </mxCell>
        <mxCell id="2o9U43HlcudiyYIdb7B9-24" value="shard1-2" style="text;whiteSpace=wrap;" parent="1" vertex="1">
          <mxGeometry x="310" y="470" width="80" height="40" as="geometry" />
        </mxCell>
        <mxCell id="2o9U43HlcudiyYIdb7B9-25" value="shard1-3" style="text;whiteSpace=wrap;" parent="1" vertex="1">
          <mxGeometry x="245" y="555" width="80" height="40" as="geometry" />
        </mxCell>
        <mxCell id="2o9U43HlcudiyYIdb7B9-26" value="shard2-1" style="text;whiteSpace=wrap;" parent="1" vertex="1">
          <mxGeometry x="410" y="470" width="80" height="40" as="geometry" />
        </mxCell>
        <mxCell id="2o9U43HlcudiyYIdb7B9-27" value="shard2-2" style="text;whiteSpace=wrap;" parent="1" vertex="1">
          <mxGeometry x="550" y="470" width="80" height="40" as="geometry" />
        </mxCell>
        <mxCell id="2o9U43HlcudiyYIdb7B9-28" value="shard2-3" style="text;whiteSpace=wrap;" parent="1" vertex="1">
          <mxGeometry x="477.5" y="555" width="80" height="40" as="geometry" />
        </mxCell>
        <mxCell id="2o9U43HlcudiyYIdb7B9-31" value="redis" style="rhombus;whiteSpace=wrap;html=1;" parent="1" vertex="1">
          <mxGeometry x="170" y="70" width="80" height="80" as="geometry" />
        </mxCell>
        <mxCell id="2o9U43HlcudiyYIdb7B9-32" value="" style="endArrow=classic;html=1;rounded=0;entryX=0.91;entryY=1.033;entryDx=0;entryDy=0;entryPerimeter=0;exitX=0.922;exitY=0.993;exitDx=0;exitDy=0;exitPerimeter=0;" parent="1" source="2o9U43HlcudiyYIdb7B9-1" target="2o9U43HlcudiyYIdb7B9-9" edge="1">
          <mxGeometry width="50" height="50" relative="1" as="geometry">
            <mxPoint x="200" y="640" as="sourcePoint" />
            <mxPoint x="660" y="390" as="targetPoint" />
            <Array as="points">
              <mxPoint x="354" y="640" />
              <mxPoint x="779" y="640" />
              <mxPoint x="779" y="440" />
            </Array>
          </mxGeometry>
        </mxCell>
        <mxCell id="K2J4BF6s9QWVCHDEu7TL-4" value="" style="endArrow=classic;html=1;rounded=0;exitX=0.25;exitY=1;exitDx=0;exitDy=0;entryX=0.17;entryY=-0.045;entryDx=0;entryDy=0;entryPerimeter=0;" parent="1" source="2o9U43HlcudiyYIdb7B9-2" target="2o9U43HlcudiyYIdb7B9-6" edge="1">
          <mxGeometry width="50" height="50" relative="1" as="geometry">
            <mxPoint x="130" y="310" as="sourcePoint" />
            <mxPoint x="180" y="260" as="targetPoint" />
          </mxGeometry>
        </mxCell>
        <mxCell id="36bimCiZwRX24TpTBmIg-2" value="pymongo-api" style="rounded=1;whiteSpace=wrap;html=1;" parent="1" vertex="1">
          <mxGeometry x="440" y="200" width="120" height="60" as="geometry" />
        </mxCell>
        <mxCell id="36bimCiZwRX24TpTBmIg-3" value="mongos_router" style="rounded=1;whiteSpace=wrap;html=1;" parent="1" vertex="1">
          <mxGeometry x="452.5" y="300" width="105" height="40" as="geometry" />
        </mxCell>
        <mxCell id="36bimCiZwRX24TpTBmIg-4" value="" style="endArrow=classic;html=1;rounded=0;exitX=0.25;exitY=1;exitDx=0;exitDy=0;entryX=0.17;entryY=-0.045;entryDx=0;entryDy=0;entryPerimeter=0;" parent="1" source="36bimCiZwRX24TpTBmIg-2" target="36bimCiZwRX24TpTBmIg-3" edge="1">
          <mxGeometry width="50" height="50" relative="1" as="geometry">
            <mxPoint x="350" y="310" as="sourcePoint" />
            <mxPoint x="400" y="260" as="targetPoint" />
          </mxGeometry>
        </mxCell>
        <mxCell id="36bimCiZwRX24TpTBmIg-6" value="" style="endArrow=classic;startArrow=classic;html=1;rounded=0;entryX=0.5;entryY=1;entryDx=0;entryDy=0;" parent="1" target="2o9U43HlcudiyYIdb7B9-6" edge="1">
          <mxGeometry width="50" height="50" relative="1" as="geometry">
            <mxPoint x="275" y="420" as="sourcePoint" />
            <mxPoint x="280" y="360" as="targetPoint" />
          </mxGeometry>
        </mxCell>
        <mxCell id="36bimCiZwRX24TpTBmIg-19" value="" style="endArrow=classic;startArrow=classic;html=1;rounded=0;entryX=0.597;entryY=1.035;entryDx=0;entryDy=0;entryPerimeter=0;" parent="1" target="36bimCiZwRX24TpTBmIg-3" edge="1">
          <mxGeometry width="50" height="50" relative="1" as="geometry">
            <mxPoint x="507.5" y="420" as="sourcePoint" />
            <mxPoint x="512.5" y="360" as="targetPoint" />
          </mxGeometry>
        </mxCell>
        <mxCell id="36bimCiZwRX24TpTBmIg-20" value="" style="endArrow=none;dashed=1;html=1;rounded=0;exitX=0.5;exitY=1;exitDx=0;exitDy=0;" parent="1" source="2o9U43HlcudiyYIdb7B9-31" edge="1">
          <mxGeometry width="50" height="50" relative="1" as="geometry">
            <mxPoint x="170" y="280" as="sourcePoint" />
            <mxPoint x="220" y="230" as="targetPoint" />
            <Array as="points">
              <mxPoint x="200" y="230" />
            </Array>
          </mxGeometry>
        </mxCell>
        <mxCell id="36bimCiZwRX24TpTBmIg-22" value="" style="endArrow=none;dashed=1;html=1;rounded=0;exitX=1;exitY=0.5;exitDx=0;exitDy=0;" parent="1" source="2o9U43HlcudiyYIdb7B9-31" edge="1">
          <mxGeometry width="50" height="50" relative="1" as="geometry">
            <mxPoint x="390" y="270" as="sourcePoint" />
            <mxPoint x="440" y="220" as="targetPoint" />
          </mxGeometry>
        </mxCell>
        <mxCell id="36bimCiZwRX24TpTBmIg-23" value="API Gateway" style="rounded=1;whiteSpace=wrap;html=1;" parent="1" vertex="1">
          <mxGeometry x="340" y="80" width="120" height="60" as="geometry" />
        </mxCell>
        <mxCell id="36bimCiZwRX24TpTBmIg-24" value="" style="endArrow=classic;html=1;rounded=0;exitX=0.847;exitY=1.05;exitDx=0;exitDy=0;exitPerimeter=0;entryX=0.12;entryY=-0.057;entryDx=0;entryDy=0;entryPerimeter=0;" parent="1" source="36bimCiZwRX24TpTBmIg-23" target="36bimCiZwRX24TpTBmIg-2" edge="1">
          <mxGeometry width="50" height="50" relative="1" as="geometry">
            <mxPoint x="460" y="160" as="sourcePoint" />
            <mxPoint x="510" y="110" as="targetPoint" />
          </mxGeometry>
        </mxCell>
        <mxCell id="36bimCiZwRX24TpTBmIg-25" value="" style="endArrow=classic;html=1;rounded=0;exitX=0.167;exitY=1.023;exitDx=0;exitDy=0;exitPerimeter=0;entryX=0.933;entryY=0.023;entryDx=0;entryDy=0;entryPerimeter=0;" parent="1" source="36bimCiZwRX24TpTBmIg-23" target="2o9U43HlcudiyYIdb7B9-2" edge="1">
          <mxGeometry width="50" height="50" relative="1" as="geometry">
            <mxPoint x="364" y="190" as="sourcePoint" />
            <mxPoint x="414" y="140" as="targetPoint" />
          </mxGeometry>
        </mxCell>
        <mxCell id="36bimCiZwRX24TpTBmIg-29" value="" style="endArrow=none;html=1;rounded=0;entryX=0.37;entryY=1.005;entryDx=0;entryDy=0;entryPerimeter=0;" parent="1" target="2o9U43HlcudiyYIdb7B9-17" edge="1">
          <mxGeometry width="50" height="50" relative="1" as="geometry">
            <mxPoint x="480" y="640" as="sourcePoint" />
            <mxPoint x="410" y="380" as="targetPoint" />
          </mxGeometry>
        </mxCell>
      </root>
    </mxGraphModel>
  </diagram>
  <diagram id="3Qc-xAg6oAa2BObzPahj" name="6">
    <mxGraphModel dx="1644" dy="902" grid="1" gridSize="10" guides="1" tooltips="1" connect="1" arrows="1" fold="1" page="1" pageScale="1" pageWidth="827" pageHeight="1169" math="0" shadow="0">
      <root>
        <mxCell id="0" />
        <mxCell id="1" parent="0" />
        <mxCell id="wtBGzVrx1fxykBW3LzxA-1" value="" style="rounded=1;whiteSpace=wrap;html=1;" parent="1" vertex="1">
          <mxGeometry x="160" y="680" width="200" height="190" as="geometry" />
        </mxCell>
        <mxCell id="wtBGzVrx1fxykBW3LzxA-2" value="pymongo-api" style="rounded=1;whiteSpace=wrap;html=1;" parent="1" vertex="1">
          <mxGeometry x="210" y="460" width="120" height="60" as="geometry" />
        </mxCell>
        <mxCell id="wtBGzVrx1fxykBW3LzxA-3" value="mongos_router" style="rounded=1;whiteSpace=wrap;html=1;" parent="1" vertex="1">
          <mxGeometry x="222.5" y="560" width="105" height="40" as="geometry" />
        </mxCell>
        <mxCell id="wtBGzVrx1fxykBW3LzxA-4" value="configSrv" style="rounded=0;whiteSpace=wrap;html=1;" parent="1" vertex="1">
          <mxGeometry x="660" y="350" width="120" height="60" as="geometry" />
        </mxCell>
        <mxCell id="wtBGzVrx1fxykBW3LzxA-5" value="" style="endArrow=none;html=1;rounded=0;" parent="1" edge="1">
          <mxGeometry width="50" height="50" relative="1" as="geometry">
            <mxPoint x="360" y="699.5" as="sourcePoint" />
            <mxPoint x="390" y="700" as="targetPoint" />
          </mxGeometry>
        </mxCell>
        <mxCell id="wtBGzVrx1fxykBW3LzxA-6" value="" style="endArrow=none;html=1;rounded=0;" parent="1" edge="1">
          <mxGeometry width="50" height="50" relative="1" as="geometry">
            <mxPoint x="600" y="700" as="sourcePoint" />
            <mxPoint x="560" y="700" as="targetPoint" />
          </mxGeometry>
        </mxCell>
        <mxCell id="wtBGzVrx1fxykBW3LzxA-7" value="" style="shape=cylinder3;whiteSpace=wrap;html=1;boundedLbl=1;backgroundOutline=1;size=15;" parent="1" vertex="1">
          <mxGeometry x="175" y="700" width="50" height="70" as="geometry" />
        </mxCell>
        <mxCell id="wtBGzVrx1fxykBW3LzxA-8" value="" style="shape=cylinder3;whiteSpace=wrap;html=1;boundedLbl=1;backgroundOutline=1;size=15;" parent="1" vertex="1">
          <mxGeometry x="300" y="700" width="50" height="70" as="geometry" />
        </mxCell>
        <mxCell id="wtBGzVrx1fxykBW3LzxA-9" value="" style="shape=cylinder3;whiteSpace=wrap;html=1;boundedLbl=1;backgroundOutline=1;size=15;" parent="1" vertex="1">
          <mxGeometry x="235" y="785" width="50" height="70" as="geometry" />
        </mxCell>
        <mxCell id="wtBGzVrx1fxykBW3LzxA-10" value="" style="rounded=1;whiteSpace=wrap;html=1;" parent="1" vertex="1">
          <mxGeometry x="390" y="680" width="210" height="190" as="geometry" />
        </mxCell>
        <mxCell id="wtBGzVrx1fxykBW3LzxA-11" value="" style="shape=cylinder3;whiteSpace=wrap;html=1;boundedLbl=1;backgroundOutline=1;size=15;" parent="1" vertex="1">
          <mxGeometry x="400" y="700" width="50" height="70" as="geometry" />
        </mxCell>
        <mxCell id="wtBGzVrx1fxykBW3LzxA-12" value="" style="shape=cylinder3;whiteSpace=wrap;html=1;boundedLbl=1;backgroundOutline=1;size=15;" parent="1" vertex="1">
          <mxGeometry x="540" y="700" width="50" height="70" as="geometry" />
        </mxCell>
        <mxCell id="wtBGzVrx1fxykBW3LzxA-13" value="" style="shape=cylinder3;whiteSpace=wrap;html=1;boundedLbl=1;backgroundOutline=1;size=15;" parent="1" vertex="1">
          <mxGeometry x="467.5" y="785" width="50" height="70" as="geometry" />
        </mxCell>
        <mxCell id="wtBGzVrx1fxykBW3LzxA-14" value="shard1" style="text;strokeColor=none;align=center;fillColor=none;html=1;verticalAlign=middle;whiteSpace=wrap;rounded=0;" parent="1" vertex="1">
          <mxGeometry x="190" y="660" width="60" height="30" as="geometry" />
        </mxCell>
        <mxCell id="wtBGzVrx1fxykBW3LzxA-15" value="shard2" style="text;whiteSpace=wrap;" parent="1" vertex="1">
          <mxGeometry x="404" y="660" width="80" height="40" as="geometry" />
        </mxCell>
        <mxCell id="wtBGzVrx1fxykBW3LzxA-16" value="shard1-1" style="text;whiteSpace=wrap;" parent="1" vertex="1">
          <mxGeometry x="180" y="730" width="80" height="40" as="geometry" />
        </mxCell>
        <mxCell id="wtBGzVrx1fxykBW3LzxA-17" value="shard1-2" style="text;whiteSpace=wrap;" parent="1" vertex="1">
          <mxGeometry x="300" y="730" width="80" height="40" as="geometry" />
        </mxCell>
        <mxCell id="wtBGzVrx1fxykBW3LzxA-18" value="shard1-3" style="text;whiteSpace=wrap;" parent="1" vertex="1">
          <mxGeometry x="235" y="815" width="80" height="40" as="geometry" />
        </mxCell>
        <mxCell id="wtBGzVrx1fxykBW3LzxA-19" value="shard2-1" style="text;whiteSpace=wrap;" parent="1" vertex="1">
          <mxGeometry x="400" y="730" width="80" height="40" as="geometry" />
        </mxCell>
        <mxCell id="wtBGzVrx1fxykBW3LzxA-20" value="shard2-2" style="text;whiteSpace=wrap;" parent="1" vertex="1">
          <mxGeometry x="540" y="730" width="80" height="40" as="geometry" />
        </mxCell>
        <mxCell id="wtBGzVrx1fxykBW3LzxA-21" value="shard2-3" style="text;whiteSpace=wrap;" parent="1" vertex="1">
          <mxGeometry x="467.5" y="815" width="80" height="40" as="geometry" />
        </mxCell>
        <mxCell id="wtBGzVrx1fxykBW3LzxA-22" value="redis" style="rhombus;whiteSpace=wrap;html=1;" parent="1" vertex="1">
          <mxGeometry x="160" y="330" width="80" height="80" as="geometry" />
        </mxCell>
        <mxCell id="wtBGzVrx1fxykBW3LzxA-23" value="" style="endArrow=classic;html=1;rounded=0;entryX=0.91;entryY=1.033;entryDx=0;entryDy=0;entryPerimeter=0;exitX=0.922;exitY=0.993;exitDx=0;exitDy=0;exitPerimeter=0;" parent="1" source="wtBGzVrx1fxykBW3LzxA-1" target="wtBGzVrx1fxykBW3LzxA-4" edge="1">
          <mxGeometry width="50" height="50" relative="1" as="geometry">
            <mxPoint x="190" y="900" as="sourcePoint" />
            <mxPoint x="650" y="650" as="targetPoint" />
            <Array as="points">
              <mxPoint x="344" y="900" />
              <mxPoint x="769" y="900" />
              <mxPoint x="769" y="700" />
            </Array>
          </mxGeometry>
        </mxCell>
        <mxCell id="wtBGzVrx1fxykBW3LzxA-24" value="" style="endArrow=classic;html=1;rounded=0;exitX=0.25;exitY=1;exitDx=0;exitDy=0;entryX=0.17;entryY=-0.045;entryDx=0;entryDy=0;entryPerimeter=0;" parent="1" source="wtBGzVrx1fxykBW3LzxA-2" target="wtBGzVrx1fxykBW3LzxA-3" edge="1">
          <mxGeometry width="50" height="50" relative="1" as="geometry">
            <mxPoint x="120" y="570" as="sourcePoint" />
            <mxPoint x="170" y="520" as="targetPoint" />
          </mxGeometry>
        </mxCell>
        <mxCell id="wtBGzVrx1fxykBW3LzxA-25" value="pymongo-api" style="rounded=1;whiteSpace=wrap;html=1;" parent="1" vertex="1">
          <mxGeometry x="430" y="460" width="120" height="60" as="geometry" />
        </mxCell>
        <mxCell id="wtBGzVrx1fxykBW3LzxA-26" value="mongos_router" style="rounded=1;whiteSpace=wrap;html=1;" parent="1" vertex="1">
          <mxGeometry x="442.5" y="560" width="105" height="40" as="geometry" />
        </mxCell>
        <mxCell id="wtBGzVrx1fxykBW3LzxA-27" value="" style="endArrow=classic;html=1;rounded=0;exitX=0.25;exitY=1;exitDx=0;exitDy=0;entryX=0.17;entryY=-0.045;entryDx=0;entryDy=0;entryPerimeter=0;" parent="1" source="wtBGzVrx1fxykBW3LzxA-25" target="wtBGzVrx1fxykBW3LzxA-26" edge="1">
          <mxGeometry width="50" height="50" relative="1" as="geometry">
            <mxPoint x="340" y="570" as="sourcePoint" />
            <mxPoint x="390" y="520" as="targetPoint" />
          </mxGeometry>
        </mxCell>
        <mxCell id="wtBGzVrx1fxykBW3LzxA-28" value="" style="endArrow=classic;startArrow=classic;html=1;rounded=0;entryX=0.5;entryY=1;entryDx=0;entryDy=0;" parent="1" target="wtBGzVrx1fxykBW3LzxA-3" edge="1">
          <mxGeometry width="50" height="50" relative="1" as="geometry">
            <mxPoint x="265" y="680" as="sourcePoint" />
            <mxPoint x="270" y="620" as="targetPoint" />
          </mxGeometry>
        </mxCell>
        <mxCell id="wtBGzVrx1fxykBW3LzxA-35" value="" style="endArrow=classic;startArrow=classic;html=1;rounded=0;entryX=0.597;entryY=1.035;entryDx=0;entryDy=0;entryPerimeter=0;" parent="1" target="wtBGzVrx1fxykBW3LzxA-26" edge="1">
          <mxGeometry width="50" height="50" relative="1" as="geometry">
            <mxPoint x="497.5" y="680" as="sourcePoint" />
            <mxPoint x="502.5" y="620" as="targetPoint" />
          </mxGeometry>
        </mxCell>
        <mxCell id="wtBGzVrx1fxykBW3LzxA-36" value="" style="endArrow=none;dashed=1;html=1;rounded=0;exitX=0.5;exitY=1;exitDx=0;exitDy=0;" parent="1" source="wtBGzVrx1fxykBW3LzxA-22" edge="1">
          <mxGeometry width="50" height="50" relative="1" as="geometry">
            <mxPoint x="160" y="540" as="sourcePoint" />
            <mxPoint x="210" y="490" as="targetPoint" />
            <Array as="points">
              <mxPoint x="190" y="490" />
            </Array>
          </mxGeometry>
        </mxCell>
        <mxCell id="wtBGzVrx1fxykBW3LzxA-37" value="" style="endArrow=none;dashed=1;html=1;rounded=0;exitX=1;exitY=0.5;exitDx=0;exitDy=0;" parent="1" source="wtBGzVrx1fxykBW3LzxA-22" edge="1">
          <mxGeometry width="50" height="50" relative="1" as="geometry">
            <mxPoint x="380" y="530" as="sourcePoint" />
            <mxPoint x="430" y="480" as="targetPoint" />
          </mxGeometry>
        </mxCell>
        <mxCell id="wtBGzVrx1fxykBW3LzxA-38" value="API Gateway" style="rounded=1;whiteSpace=wrap;html=1;" parent="1" vertex="1">
          <mxGeometry x="330" y="340" width="120" height="60" as="geometry" />
        </mxCell>
        <mxCell id="wtBGzVrx1fxykBW3LzxA-39" value="" style="endArrow=classic;html=1;rounded=0;exitX=0.847;exitY=1.05;exitDx=0;exitDy=0;exitPerimeter=0;entryX=0.12;entryY=-0.057;entryDx=0;entryDy=0;entryPerimeter=0;" parent="1" source="wtBGzVrx1fxykBW3LzxA-38" target="wtBGzVrx1fxykBW3LzxA-25" edge="1">
          <mxGeometry width="50" height="50" relative="1" as="geometry">
            <mxPoint x="450" y="420" as="sourcePoint" />
            <mxPoint x="500" y="370" as="targetPoint" />
          </mxGeometry>
        </mxCell>
        <mxCell id="wtBGzVrx1fxykBW3LzxA-40" value="" style="endArrow=classic;html=1;rounded=0;exitX=0.167;exitY=1.023;exitDx=0;exitDy=0;exitPerimeter=0;entryX=0.933;entryY=0.023;entryDx=0;entryDy=0;entryPerimeter=0;" parent="1" source="wtBGzVrx1fxykBW3LzxA-38" target="wtBGzVrx1fxykBW3LzxA-2" edge="1">
          <mxGeometry width="50" height="50" relative="1" as="geometry">
            <mxPoint x="354" y="450" as="sourcePoint" />
            <mxPoint x="404" y="400" as="targetPoint" />
          </mxGeometry>
        </mxCell>
        <mxCell id="wtBGzVrx1fxykBW3LzxA-41" value="" style="endArrow=none;html=1;rounded=0;entryX=0.37;entryY=1.005;entryDx=0;entryDy=0;entryPerimeter=0;" parent="1" target="wtBGzVrx1fxykBW3LzxA-10" edge="1">
          <mxGeometry width="50" height="50" relative="1" as="geometry">
            <mxPoint x="470" y="900" as="sourcePoint" />
            <mxPoint x="400" y="640" as="targetPoint" />
          </mxGeometry>
        </mxCell>
        <mxCell id="wtBGzVrx1fxykBW3LzxA-42" value="Сайт" style="rounded=1;whiteSpace=wrap;html=1;" parent="1" vertex="1">
          <mxGeometry x="330" y="230" width="120" height="60" as="geometry" />
        </mxCell>
        <mxCell id="wtBGzVrx1fxykBW3LzxA-43" value="CDN" style="ellipse;shape=cloud;whiteSpace=wrap;html=1;" parent="1" vertex="1">
          <mxGeometry x="570" y="50" width="120" height="80" as="geometry" />
        </mxCell>
        <mxCell id="wtBGzVrx1fxykBW3LzxA-44" value="" style="endArrow=classic;html=1;rounded=0;entryX=0.13;entryY=0.77;entryDx=0;entryDy=0;entryPerimeter=0;" parent="1" target="wtBGzVrx1fxykBW3LzxA-43" edge="1">
          <mxGeometry width="50" height="50" relative="1" as="geometry">
            <mxPoint x="450" y="230" as="sourcePoint" />
            <mxPoint x="500" y="180" as="targetPoint" />
          </mxGeometry>
        </mxCell>
        <mxCell id="wtBGzVrx1fxykBW3LzxA-45" value="CDN&lt;br&gt;регион 1" style="rounded=1;whiteSpace=wrap;html=1;" parent="1" vertex="1">
          <mxGeometry x="397.5" y="40" width="120" height="60" as="geometry" />
        </mxCell>
        <mxCell id="wtBGzVrx1fxykBW3LzxA-46" value="CDN&lt;br&gt;регион 2" style="rounded=1;whiteSpace=wrap;html=1;" parent="1" vertex="1">
          <mxGeometry x="620" y="180" width="120" height="60" as="geometry" />
        </mxCell>
        <mxCell id="wtBGzVrx1fxykBW3LzxA-47" value="" style="endArrow=classic;html=1;rounded=0;exitX=0.55;exitY=0.95;exitDx=0;exitDy=0;exitPerimeter=0;entryX=0.16;entryY=-0.043;entryDx=0;entryDy=0;entryPerimeter=0;" parent="1" source="wtBGzVrx1fxykBW3LzxA-43" target="wtBGzVrx1fxykBW3LzxA-46" edge="1">
          <mxGeometry width="50" height="50" relative="1" as="geometry">
            <mxPoint x="130" y="490" as="sourcePoint" />
            <mxPoint x="180" y="440" as="targetPoint" />
          </mxGeometry>
        </mxCell>
        <mxCell id="wtBGzVrx1fxykBW3LzxA-48" value="" style="endArrow=classic;html=1;rounded=0;exitX=0.07;exitY=0.4;exitDx=0;exitDy=0;exitPerimeter=0;" parent="1" source="wtBGzVrx1fxykBW3LzxA-43" edge="1">
          <mxGeometry width="50" height="50" relative="1" as="geometry">
            <mxPoint x="646" y="136" as="sourcePoint" />
            <mxPoint x="520" y="82" as="targetPoint" />
          </mxGeometry>
        </mxCell>
        <mxCell id="gNeHdLKc1JUgXCDzlK6o-1" value="" style="endArrow=classic;html=1;rounded=0;exitX=0.25;exitY=1;exitDx=0;exitDy=0;entryX=0.25;entryY=0;entryDx=0;entryDy=0;" parent="1" source="wtBGzVrx1fxykBW3LzxA-42" target="wtBGzVrx1fxykBW3LzxA-38" edge="1">
          <mxGeometry width="50" height="50" relative="1" as="geometry">
            <mxPoint x="130" y="490" as="sourcePoint" />
            <mxPoint x="180" y="440" as="targetPoint" />
          </mxGeometry>
        </mxCell>
        <mxCell id="gNeHdLKc1JUgXCDzlK6o-2" value="" style="endArrow=classic;html=1;rounded=0;exitX=0.944;exitY=1.055;exitDx=0;exitDy=0;exitPerimeter=0;" parent="1" source="wtBGzVrx1fxykBW3LzxA-3" edge="1">
          <mxGeometry width="50" height="50" relative="1" as="geometry">
            <mxPoint x="330" y="635" as="sourcePoint" />
            <mxPoint x="680" y="410" as="targetPoint" />
            <Array as="points">
              <mxPoint x="320" y="630" />
              <mxPoint x="680" y="630" />
            </Array>
          </mxGeometry>
        </mxCell>
        <mxCell id="gNeHdLKc1JUgXCDzlK6o-3" value="" style="endArrow=classic;html=1;rounded=0;entryX=0.5;entryY=1;entryDx=0;entryDy=0;" parent="1" target="wtBGzVrx1fxykBW3LzxA-4" edge="1">
          <mxGeometry width="50" height="50" relative="1" as="geometry">
            <mxPoint x="547.5" y="585" as="sourcePoint" />
            <mxPoint x="597.5" y="535" as="targetPoint" />
            <Array as="points">
              <mxPoint x="720" y="585" />
            </Array>
          </mxGeometry>
        </mxCell>
      </root>
    </mxGraphModel>
  </diagram>
</mxfile>
